<svg width="48" height="48" viewBox="0 0 48 48" fill="none" xmlns="http://www.w3.org/2000/svg">
<mask id="path-1-inside-1_2345_1215" fill="white">
<path d="M32 0C40.8365 5.57923e-05 48 7.16348 48 16V32C48 40.8365 40.8365 47.9999 32 48H16C7.16344 48 2.57721e-07 40.8366 0 32V16C0 13.2599 0.688426 10.6805 1.90234 8.42578C0.907187 5.71151 0.384958 3.15418 0.116211 1.37598C-0.0198176 0.475884 1.02737 -0.00101666 1.76465 0.55957C2.91334 1.43342 4.50736 2.47872 6.35059 3.23633C9.03312 1.20517 12.3758 0 16 0H32Z"/>
</mask>
<path d="M32 0C40.8365 5.57923e-05 48 7.16348 48 16V32C48 40.8365 40.8365 47.9999 32 48H16C7.16344 48 2.57721e-07 40.8366 0 32V16C0 13.2599 0.688426 10.6805 1.90234 8.42578C0.907187 5.71151 0.384958 3.15418 0.116211 1.37598C-0.0198176 0.475884 1.02737 -0.00101666 1.76465 0.55957C2.91334 1.43342 4.50736 2.47872 6.35059 3.23633C9.03312 1.20517 12.3758 0 16 0H32Z" fill="white"/>
<path d="M32 0L32 -2H32V0ZM48 16L50 16V16L48 16ZM32 48L32 50L32 50L32 48ZM0 32L-2 32L-2 32L0 32ZM1.90234 8.42578L3.66333 9.3739C3.93453 8.87018 3.97704 8.27444 3.78011 7.73732L1.90234 8.42578ZM0.116211 1.37598L-1.86133 1.67484L-1.86133 1.67485L0.116211 1.37598ZM1.76465 0.55957L2.97556 -1.03219L2.97517 -1.03249L1.76465 0.55957ZM6.35059 3.23633L5.59026 5.08617C6.2451 5.35532 6.99345 5.25821 7.5579 4.83082L6.35059 3.23633ZM32 0L32 2C39.7319 2.00005 46 8.26806 46 16L48 16L50 16C50 6.0589 41.9411 -1.99994 32 -2L32 0ZM48 16H46V32H48H50V16H48ZM48 32H46C46 39.7319 39.7319 46 32 46L32 48L32 50C41.9411 49.9999 50 41.9411 50 32H48ZM32 48V46H16V48V50H32V48ZM16 48V46C8.26801 46 2 39.732 2 32L0 32L-2 32C-2 41.9411 6.05887 50 16 50V48ZM0 32H2V16H0H-2V32H0ZM0 16H2C2 13.5987 2.60253 11.3442 3.66333 9.3739L1.90234 8.42578L0.141357 7.47766C-1.22567 10.0167 -2 12.921 -2 16H0ZM1.90234 8.42578L3.78011 7.73732C2.84396 5.18397 2.34883 2.76483 2.09375 1.0771L0.116211 1.37598L-1.86133 1.67485C-1.57891 3.54353 -1.02958 6.23906 0.0245742 9.11424L1.90234 8.42578ZM0.116211 1.37598L2.09376 1.07712C2.12294 1.27025 2.09436 1.52187 1.95978 1.76338C1.83193 1.99282 1.64901 2.14121 1.47808 2.22322C1.14194 2.38449 0.786128 2.32803 0.554131 2.15163L1.76465 0.55957L2.97517 -1.03249C2.00589 -1.76947 0.757843 -1.86778 -0.252199 -1.38318C-1.31586 -0.872861 -2.07125 0.285851 -1.86133 1.67484L0.116211 1.37598ZM1.76465 0.55957L0.553741 2.15133C1.78988 3.0917 3.53626 4.24193 5.59026 5.08617L6.35059 3.23633L7.11091 1.38649C5.47845 0.715511 4.0368 -0.224869 2.97556 -1.03219L1.76465 0.55957ZM6.35059 3.23633L7.5579 4.83082C9.90507 3.05359 12.8267 2 16 2V0V-2C11.925 -2 8.16118 -0.643256 5.14327 1.64184L6.35059 3.23633ZM16 0V2H32V0V-2H16V0Z" fill="#333333" mask="url(#path-1-inside-1_2345_1215)"/>
</svg>
