<svg width="36" height="36" viewBox="0 0 36 36" fill="none" xmlns="http://www.w3.org/2000/svg">
<g clip-path="url(#clip0_2347_1287)">
<g clip-path="url(#clip1_2347_1287)">
<path d="M12 12L0 12L0 0L12 12Z" fill="white" fill-opacity="0.3"/>
<path d="M0 0H12V12L0 0Z" fill="white" fill-opacity="0.8"/>
<path d="M19 0H19.5V-0.5H19V0ZM19 12V12.5H19.5V12H19ZM12 12L11.6464 12.3536L11.7929 12.5H12V12ZM0 0V-0.5H-1.20711L-0.353553 0.353553L0 0ZM19 0H18.5V12H19H19.5V0H19ZM19 12V11.5H12V12V12.5H19V12ZM12 12L12.3536 11.6464L0.353553 -0.353553L0 0L-0.353553 0.353553L11.6464 12.3536L12 12ZM0 0V0.5H19V0V-0.5H0V0Z" fill="#222222"/>
<rect x="1" width="11" height="1" fill="#222222"/>
<rect width="1" height="12" fill="#222222"/>
<rect x="11" y="11" width="1" height="1" fill="#222222"/>
</g>
<mask id="path-9-inside-1_2347_1287" fill="white">
<path d="M24 0L24 12L12 12L12 -5.24537e-07L24 0Z"/>
</mask>
<path d="M24 0L24 12L12 12L12 -5.24537e-07L24 0Z" fill="white" fill-opacity="0.8"/>
<path d="M24 12L24 11L12 11L12 12L12 13L24 13L24 12ZM12 -5.24537e-07L12 0.999999L24 1L24 0L24 -1L12 -1L12 -5.24537e-07Z" fill="#222222" mask="url(#path-9-inside-1_2347_1287)"/>
<g clip-path="url(#clip2_2347_1287)">
<path d="M24 12L24 0L36 5.24537e-07L24 12Z" fill="white" fill-opacity="0.8"/>
<path d="M36 0L36 12L24 12L36 0Z" fill="black" fill-opacity="0.3"/>
<path d="M36 18.999L36 19.499L36.5 19.499L36.5 18.999L36 18.999ZM24 18.999L23.5 18.999L23.5 19.499L24 19.499L24 18.999ZM24 11.999L24 11.499L23.5 11.499L23.5 11.999L24 11.999ZM24.001 11.999L24.001 12.499L24.2081 12.499L24.3545 12.3526L24.001 11.999ZM36 0L36.5 2.18557e-08L36.5 -1.20711L35.6464 -0.353553L36 0ZM36 18.999L36 18.499L24 18.499L24 18.999L24 19.499L36 19.499L36 18.999ZM24 18.999L24.5 18.999L24.5 11.999L24 11.999L23.5 11.999L23.5 18.999L24 18.999ZM24 11.999L24 12.499L24.001 12.499L24.001 11.999L24.001 11.499L24 11.499L24 11.999ZM24.001 11.999L24.3545 12.3526L36.3536 0.353553L36 0L35.6464 -0.353553L23.6474 11.6455L24.001 11.999ZM36 0L35.5 -2.18557e-08L35.5 18.999L36 18.999L36.5 18.999L36.5 2.18557e-08L36 0Z" fill="#222222"/>
<rect x="36.001" y="1.00195" width="11" height="1" transform="rotate(90 36.001 1.00195)" fill="#222222"/>
<rect x="36" width="1" height="12" transform="rotate(90 36 0)" fill="#222222"/>
<rect x="25" y="11" width="1" height="1" transform="rotate(90 25 11)" fill="#222222"/>
</g>
<mask id="path-17-inside-2_2347_1287" fill="white">
<path d="M0 12H12V24H0V12Z"/>
</mask>
<path d="M0 12H12V24H0V12Z" fill="white" fill-opacity="0.3"/>
<path d="M12 12H11V24H12H13V12H12ZM0 24H1V12H0H-1V24H0Z" fill="#222222" mask="url(#path-17-inside-2_2347_1287)"/>
<mask id="path-19-inside-3_2347_1287" fill="white">
<path d="M24 12H36V24H24V12Z"/>
</mask>
<path d="M24 12H36V24H24V12Z" fill="black" fill-opacity="0.3"/>
<path d="M36 12H35V24H36H37V12H36ZM24 24H25V12H24H23V24H24Z" fill="#222222" mask="url(#path-19-inside-3_2347_1287)"/>
<g clip-path="url(#clip3_2347_1287)">
<path d="M12 24L12 36L5.24537e-07 36L12 24Z" fill="black" fill-opacity="0.6"/>
<path d="M0 36L-5.24537e-07 24L12 24L0 36Z" fill="white" fill-opacity="0.3"/>
<path d="M11.999 17.001L12.499 17.001L12.499 16.501L11.999 16.501L11.999 17.001ZM11.999 24L11.499 24L11.499 24.5L11.999 24.5L11.999 24ZM12 24L12.3536 24.3536L13.2071 23.5L12 23.5L12 24ZM0 36L-0.5 36L-0.5 37.2071L0.353553 36.3536L0 36ZM-5.24494e-07 24.001L0.499999 24.001L0.499999 23.501L-5.46349e-07 23.501L-5.24494e-07 24.001ZM-0.000977087 24.001L-0.500977 24.001L-0.500977 24.501L-0.000977065 24.501L-0.000977087 24.001ZM-0.000977393 17.001L-0.000977415 16.501L-0.500977 16.501L-0.500977 17.001L-0.000977393 17.001ZM11.999 17.001L11.499 17.001L11.499 24L11.999 24L12.499 24L12.499 17.001L11.999 17.001ZM11.999 24L11.999 24.5L12 24.5L12 24L12 23.5L11.999 23.5L11.999 24ZM12 24L11.6464 23.6464L-0.353553 35.6464L0 36L0.353553 36.3536L12.3536 24.3536L12 24ZM0 36L0.5 36L0.499999 24.001L-5.24494e-07 24.001L-0.500001 24.001L-0.5 36L0 36ZM-5.24494e-07 24.001L-5.46349e-07 23.501L-0.000977109 23.501L-0.000977087 24.001L-0.000977065 24.501L-5.02638e-07 24.501L-5.24494e-07 24.001ZM-0.000977087 24.001L0.499023 24.001L0.499023 17.001L-0.000977393 17.001L-0.500977 17.001L-0.500977 24.001L-0.000977087 24.001ZM-0.000977393 17.001L-0.000977371 17.501L11.999 17.501L11.999 17.001L11.999 16.501L-0.000977415 16.501L-0.000977393 17.001Z" fill="#222222"/>
<rect y="35" width="11" height="1" transform="rotate(-90 0 35)" fill="#222222"/>
<rect y="36" width="1" height="12" transform="rotate(-90 0 36)" fill="#222222"/>
<rect x="11" y="25" width="1" height="1" transform="rotate(-90 11 25)" fill="#222222"/>
</g>
<mask id="path-27-inside-4_2347_1287" fill="white">
<path d="M24 24L24 36L12 36L12 24L24 24Z"/>
</mask>
<path d="M24 24L24 36L12 36L12 24L24 24Z" fill="black" fill-opacity="0.6"/>
<path d="M24 36L24 35L12 35L12 36L12 37L24 37L24 36ZM12 24L12 25L24 25L24 24L24 23L12 23L12 24Z" fill="#222222" mask="url(#path-27-inside-4_2347_1287)"/>
<g clip-path="url(#clip4_2347_1287)">
<path d="M24 24L36 24L36 36L24 24Z" fill="black" fill-opacity="0.3"/>
<path d="M36 36L24 36L24 24L36 36Z" fill="black" fill-opacity="0.6"/>
<path d="M17.0012 36L16.5012 36L16.5012 36.5L17.0012 36.5L17.0012 36ZM17.0012 24L17.0012 23.5L16.5012 23.5L16.5012 24L17.0012 24ZM24.0012 24L24.5012 24L24.5012 23.5L24.0012 23.5L24.0012 24ZM24.0012 24.001L23.5012 24.001L23.5012 24.2081L23.6477 24.3545L24.0012 24.001ZM36.0002 36L36.0002 36.5L37.2074 36.5L36.3538 35.6464L36.0002 36ZM17.0012 36L17.5012 36L17.5012 24L17.0012 24L16.5012 24L16.5012 36L17.0012 36ZM17.0012 24L17.0012 24.5L24.0012 24.5L24.0012 24L24.0012 23.5L17.0012 23.5L17.0012 24ZM24.0012 24L23.5012 24L23.5012 24.001L24.0012 24.001L24.5012 24.001L24.5012 24L24.0012 24ZM24.0012 24.001L23.6477 24.3545L35.6467 36.3536L36.0002 36L36.3538 35.6464L24.3548 23.6474L24.0012 24.001ZM36.0002 36L36.0002 35.5L17.0012 35.5L17.0012 36L17.0012 36.5L36.0002 36.5L36.0002 36Z" fill="#222222"/>
<rect x="35" y="35.998" width="11" height="1" transform="rotate(180 35 35.998)" fill="#222222"/>
<rect x="36" y="36" width="1" height="12" transform="rotate(180 36 36)" fill="#222222"/>
<rect x="24.999" y="25" width="1" height="1" transform="rotate(180 24.999 25)" fill="#222222"/>
</g>
</g>
<rect x="0.5" y="0.5" width="35" height="35" rx="0.5" stroke="#222222"/>
<defs>
<clipPath id="clip0_2347_1287">
<rect width="36" height="36" rx="1" fill="white"/>
</clipPath>
<clipPath id="clip1_2347_1287">
<rect width="12" height="12" fill="white"/>
</clipPath>
<clipPath id="clip2_2347_1287">
<rect width="12" height="12" fill="white" transform="translate(36) rotate(90)"/>
</clipPath>
<clipPath id="clip3_2347_1287">
<rect width="12" height="12" fill="white" transform="translate(0 36) rotate(-90)"/>
</clipPath>
<clipPath id="clip4_2347_1287">
<rect width="12" height="12" fill="white" transform="translate(36 36) rotate(180)"/>
</clipPath>
</defs>
</svg>
