<svg width="57" height="55" viewBox="0 0 57 55" fill="none" xmlns="http://www.w3.org/2000/svg">
<path d="M43 12.8476C43 19.054 39.9194 22.454 34.0382 27.473L25.8607 34.327C24.6284 35.4603 23.7322 36 22.724 36C21.6598 36 20.5396 35.4063 18.9153 34.1111C15.3866 31.1429 13.3142 29.6857 10.8497 27.581C5.02459 22.2921 2 19.3238 2 13.1714C2 7.07301 6.70492 2 12.306 2C17.347 2 20.0355 3.61905 22.5 8.85397C25.1325 3.72698 28.5492 2 32.526 2C38.7432 2 43 6.74921 43 12.8476Z" fill="#FF7CB7" stroke="#FF4398" stroke-width="4" stroke-linejoin="round"/>
<path d="M55 40.0619C55 43.5302 53.2719 45.4302 49.9727 48.2349L45.3852 52.0651C44.694 52.6984 44.1913 53 43.6257 53C43.0287 53 42.4003 52.6683 41.4891 51.9444C39.5096 50.2857 38.347 49.4714 36.9645 48.2952C33.6967 45.3397 32 43.681 32 40.2429C32 36.8349 34.6393 34 37.7814 34C40.6093 34 42.1175 34.9048 43.5 37.8302C44.9768 34.9651 46.8934 34 49.1243 34C52.612 34 55 36.654 55 40.0619Z" fill="#FFFC4D" stroke="#FF4398" stroke-width="4" stroke-linejoin="round"/>
</svg>
